<svg width="34" height="35" viewBox="0 0 34 35" fill="none" xmlns="http://www.w3.org/2000/svg">
<path d="M33.7392 22.0166H0.260864V4.64126C0.260864 3.53459 1.16515 2.63452 2.277 2.63452H31.723C32.8345 2.63452 33.7392 3.53459 33.7392 4.64126V22.0166ZM1.00483 21.2761H32.9952V4.64126C32.9952 3.94297 32.4246 3.37502 31.723 3.37502H2.277C1.57545 3.37502 1.00483 3.94297 1.00483 4.64126V21.2761Z" fill="#331B3B"/>
<path d="M31.723 26.6166H2.277C1.16515 26.6166 0.260864 25.7161 0.260864 24.6098V21.2761H33.7392V24.6098C33.7392 25.7161 32.8345 26.6166 31.723 26.6166ZM1.00483 22.0166V24.6098C1.00483 25.3081 1.57545 25.8761 2.277 25.8761H31.723C32.4246 25.8761 32.9952 25.3081 32.9952 24.6098V22.0166H1.00483Z" fill="#331B3B"/>
<path d="M22.1427 31.1939H11.8574C11.6967 31.1939 11.5542 31.0914 11.504 30.9392C11.4538 30.787 11.5077 30.6204 11.6372 30.5256C13.0499 29.493 13.9929 27.9154 14.2243 26.1975C14.2488 26.0138 14.4066 25.8765 14.5929 25.8765H19.4064C19.5927 25.8765 19.7504 26.0135 19.775 26.1975C20.0064 27.9158 20.9497 29.493 22.3625 30.5256C22.4923 30.6204 22.5459 30.787 22.4957 30.9392C22.4454 31.0914 22.3037 31.1939 22.1427 31.1939ZM12.8662 30.4534H21.1342C20.0767 29.4168 19.3547 28.0702 19.0891 26.6166H14.911C14.6457 28.0702 13.9237 29.4168 12.8662 30.4534Z" fill="#331B3B"/>
<path d="M22.9718 33.1233H11.0282C10.2887 33.1233 9.68723 32.5247 9.68723 31.7886C9.68723 31.0525 10.2887 30.4539 11.0282 30.4539H22.9718C23.7113 30.4539 24.3128 31.0525 24.3128 31.7886C24.3128 32.5247 23.7113 33.1233 22.9718 33.1233ZM11.0282 31.194C10.699 31.194 10.4312 31.4606 10.4312 31.7882C10.4312 32.1159 10.699 32.3825 11.0282 32.3825H22.9718C23.3014 32.3825 23.5688 32.1159 23.5688 31.7882C23.5688 31.4606 23.301 31.194 22.9718 31.194H11.0282Z" fill="#331B3B"/>
<path d="M17.6327 24.3165H16.3673C16.1619 24.3165 15.9953 24.151 15.9953 23.9463C15.9953 23.7416 16.1619 23.576 16.3673 23.576H17.6327C17.8384 23.576 18.0047 23.7416 18.0047 23.9463C18.0047 24.151 17.8384 24.3165 17.6327 24.3165Z" fill="#331B3B"/>
<path d="M13.7582 15.9272C12.4593 15.9272 12.0851 14.7765 11.7841 13.8519C11.4761 12.9052 11.2529 12.325 10.5703 12.325C10.365 12.325 10.1984 12.1592 10.1984 11.9548C10.1984 11.7504 10.365 11.5846 10.5703 11.5846C11.2529 11.5846 11.4765 11.0044 11.7845 10.0577C12.0854 9.13278 12.4596 7.98242 13.7586 7.98242C13.9639 7.98242 14.1306 8.14829 14.1306 8.35267C14.1306 8.55705 13.9639 8.72292 13.7586 8.72292C13.0373 8.72292 12.8074 9.31679 12.4924 10.2857C12.3023 10.8703 12.0821 11.5464 11.6145 11.9548C12.0821 12.3632 12.3023 13.0393 12.4924 13.6239C12.8074 14.5928 13.0373 15.1867 13.7586 15.1867C13.9639 15.1867 14.1306 15.3526 14.1306 15.5569C14.1306 15.7613 13.9636 15.9272 13.7582 15.9272Z" fill="#331B3B"/>
<path d="M20.2419 15.9272C20.0361 15.9272 19.8699 15.7613 19.8699 15.5569C19.8699 15.3526 20.0361 15.1867 20.2419 15.1867C20.9628 15.1867 21.193 14.5928 21.5081 13.6235C21.6982 13.0393 21.9184 12.3628 22.386 11.9548C21.918 11.5464 21.6978 10.8703 21.5081 10.2861C21.1926 9.31679 20.9628 8.72292 20.2419 8.72292C20.0361 8.72292 19.8699 8.55705 19.8699 8.35267C19.8699 8.14829 20.0361 7.98242 20.2419 7.98242C21.5408 7.98242 21.915 9.13315 22.216 10.0577C22.524 11.0044 22.7471 11.5846 23.4297 11.5846C23.6354 11.5846 23.8017 11.7504 23.8017 11.9548C23.8017 12.1592 23.6354 12.325 23.4297 12.325C22.7471 12.325 22.5236 12.9052 22.2156 13.8519C21.915 14.7765 21.5408 15.9272 20.2419 15.9272Z" fill="#331B3B"/>
<path d="M15.5378 16.7872C15.4987 16.7872 15.4589 16.7809 15.4195 16.7679C15.2249 16.7028 15.1197 16.4929 15.1851 16.2992L18.1907 7.37515C18.2562 7.18151 18.4671 7.0771 18.6617 7.14189C18.8566 7.20706 18.9618 7.41699 18.8964 7.61063L15.8908 16.5347C15.8383 16.6891 15.6933 16.7872 15.5378 16.7872Z" fill="#331B3B"/>
</svg>
