<svg width="36" height="45" viewBox="0 0 36 45" fill="none" xmlns="http://www.w3.org/2000/svg">
<g clip-path="url(#clip0_3304_56)" filter="url(#filter0_d_3304_56)">
<path d="M16.3561 22.0827C14.7279 22.0827 13.1 21.4656 11.8605 20.2319C9.38196 17.7649 9.38196 13.7502 11.8605 11.2832C14.3395 8.81613 18.373 8.81574 20.8516 11.2832C23.3306 13.7502 23.3306 17.7649 20.8516 20.2319C19.6121 21.4656 17.9839 22.0827 16.3561 22.0827ZM16.3557 10.2164C14.9295 10.2164 13.5029 10.7567 12.4171 11.8375C10.2453 13.9991 10.2453 17.516 12.4171 19.6776C14.5888 21.8392 18.1226 21.8392 20.2943 19.6776C22.4661 17.516 22.4661 13.9991 20.2943 11.8375C19.2084 10.7571 17.7823 10.2164 16.3557 10.2164Z" fill="#331B3B"/>
<path d="M29.272 26.5365L24.0371 21.3257C23.559 20.8497 22.8335 20.7753 22.2707 21.0908L21.1155 19.941C23.3195 17.4587 23.236 13.6568 20.8512 11.2835C18.373 8.81611 14.339 8.8165 11.8601 11.2835C9.3815 13.7505 9.3815 17.7653 11.8601 20.2323C13.0996 21.4656 14.7274 22.0831 16.3556 22.0831C17.8602 22.0831 19.3608 21.5491 20.5585 20.4957L21.7137 21.6456C21.3967 22.2058 21.4711 22.9275 21.9497 23.4038L27.1849 28.6142C27.4625 28.891 27.8332 29.0435 28.2282 29.0435C28.6233 29.0435 28.9939 28.891 29.2716 28.6142C29.5496 28.3374 29.7028 27.9685 29.7028 27.5753C29.7028 27.1821 29.55 26.8129 29.272 26.5365ZM12.4174 19.678C10.2456 17.5163 10.2456 13.9995 12.4174 11.8378C13.5033 10.757 14.9294 10.2168 16.356 10.2168C17.7826 10.2168 19.2088 10.757 20.2946 11.8378C22.4664 13.9995 22.4664 17.5163 20.2946 19.678C18.1229 21.8396 14.5888 21.8392 12.4174 19.678ZM28.715 28.0599C28.4567 28.3171 28.0006 28.3171 27.7418 28.0599L22.5066 22.8491C22.2384 22.5817 22.2384 22.1474 22.5066 21.88C22.6409 21.7467 22.8169 21.6797 22.9934 21.6797C23.1694 21.6797 23.3459 21.7463 23.4798 21.88L28.7146 27.0908C28.8438 27.2194 28.9151 27.3915 28.9151 27.575C28.9151 27.7584 28.8442 27.9309 28.715 28.0599Z" fill="#331B3B"/>
<path d="M12.2343 18.0103C12.1149 18.0103 11.9972 17.9566 11.92 17.8551C11.7888 17.6826 11.8227 17.4364 11.9964 17.3058L17.6802 13.0241C17.7692 12.9575 17.8819 12.9308 17.9913 12.9516C18.1004 12.9724 18.1962 13.0379 18.2541 13.1323L20.0142 16.0039L20.6066 15.5805C20.7823 15.4535 21.0288 15.4943 21.1564 15.6703C21.2832 15.8463 21.2431 16.091 21.0662 16.2176L20.1292 16.8876C20.0402 16.9511 19.928 16.9758 19.8216 16.9534C19.7141 16.9319 19.6204 16.8664 19.5636 16.7735L17.809 13.9109L12.4721 17.9307C12.4005 17.9844 12.317 18.0103 12.2343 18.0103Z" fill="#331B3B"/>
<path d="M26.5795 22.5536C26.7973 22.5536 26.9734 22.3783 26.9734 22.1615V3.02242C26.9734 1.94435 26.0923 1.06738 25.0092 1.06738H8.26059C7.17747 1.06738 6.29679 1.94435 6.29679 3.02242V34.3951C6.29679 35.4728 7.17786 36.3498 8.26059 36.3498H25.0088C26.0919 36.3498 26.973 35.4728 26.973 34.3951V29.6324C26.973 29.4156 26.7969 29.2404 26.5791 29.2404C26.3613 29.2404 26.1853 29.4156 26.1853 29.6324V30.6458H7.08452V19.0179L8.10462 20.6797C8.16252 20.7742 8.25823 20.8396 8.36733 20.8604C8.39175 20.8651 8.41617 20.8675 8.44058 20.8675C8.52566 20.8675 8.60916 20.84 8.67848 20.7883L9.92702 19.8482C10.1003 19.7173 10.1346 19.4715 10.0034 19.299C9.87188 19.1265 9.62493 19.0924 9.45163 19.2229L8.55008 19.9019L7.08452 17.5145V5.56471H26.1857V11.5917L23.3479 13.6212C23.171 13.7475 23.1305 13.9925 23.2577 14.1685C23.3345 14.2751 23.4554 14.332 23.5779 14.332C23.6575 14.332 23.7378 14.3081 23.8071 14.2583L26.1857 12.5573V22.1619C26.1857 22.3779 26.3617 22.5536 26.5795 22.5536ZM26.1857 31.4298V34.3947C26.1857 35.04 25.6579 35.5653 25.0092 35.5653H8.26059C7.61229 35.5653 7.08452 35.04 7.08452 34.3947V31.4298H26.1857ZM7.08452 4.78066V3.02242C7.08452 2.37675 7.61229 1.85144 8.26059 1.85144H25.0088C25.6575 1.85144 26.1853 2.37675 26.1853 3.02242V4.78066H7.08452Z" fill="#331B3B"/>
<path d="M16.6349 34.9107C15.8637 34.9107 15.2363 34.2862 15.2363 33.5186C15.2363 32.751 15.8637 32.1261 16.6349 32.1261C17.4061 32.1261 18.0335 32.751 18.0335 33.5186C18.0335 34.2862 17.4061 34.9107 16.6349 34.9107ZM16.6349 32.9105C16.2982 32.9105 16.024 33.1834 16.024 33.519C16.024 33.8545 16.2982 34.127 16.6349 34.127C16.9717 34.127 17.2458 33.8545 17.2458 33.519C17.2458 33.1834 16.9721 32.9105 16.6349 32.9105Z" fill="#331B3B"/>
<path d="M19.032 3.68139H14.2379C14.0204 3.68139 13.844 3.50576 13.844 3.28937C13.844 3.07297 14.0204 2.89734 14.2379 2.89734H19.032C19.2498 2.89734 19.4258 3.07297 19.4258 3.28937C19.4258 3.50576 19.2498 3.68139 19.032 3.68139Z" fill="#331B3B"/>
</g>
<defs>
<filter id="filter0_d_3304_56" x="-4" y="0.79248" width="44" height="43.8322" filterUnits="userSpaceOnUse" color-interpolation-filters="sRGB">
<feFlood flood-opacity="0" result="BackgroundImageFix"/>
<feColorMatrix in="SourceAlpha" type="matrix" values="0 0 0 0 0 0 0 0 0 0 0 0 0 0 0 0 0 0 127 0" result="hardAlpha"/>
<feOffset dy="4"/>
<feGaussianBlur stdDeviation="2"/>
<feComposite in2="hardAlpha" operator="out"/>
<feColorMatrix type="matrix" values="0 0 0 0 0 0 0 0 0 0 0 0 0 0 0 0 0 0 0.25 0"/>
<feBlend mode="normal" in2="BackgroundImageFix" result="effect1_dropShadow_3304_56"/>
<feBlend mode="normal" in="SourceGraphic" in2="effect1_dropShadow_3304_56" result="shape"/>
</filter>
<clipPath id="clip0_3304_56">
<rect width="36" height="35.8322" fill="white" transform="translate(0 0.79248)"/>
</clipPath>
</defs>
</svg>
