<svg width="30" height="31" viewBox="0 0 30 31" fill="none" xmlns="http://www.w3.org/2000/svg">
<g clip-path="url(#clip0_3304_30)">
<path d="M15 30.4003C6.85592 30.4003 0.230164 23.8054 0.230164 15.6993C0.230164 7.59316 6.85592 0.998295 15 0.998295C23.1441 0.998295 29.7698 7.59316 29.7698 15.6993C29.7698 23.8054 23.1441 30.4003 15 30.4003ZM15.3282 20.9779C17.4544 21.0119 19.5156 21.3732 21.3894 22.0227C21.8565 20.2122 22.1292 18.1785 22.1545 16.026H15.3282V20.9779ZM15.3282 21.6313V29.7306C17.8486 29.5061 20.0323 26.7113 21.2158 22.6538C19.4008 22.0194 17.3976 21.6653 15.3282 21.6313ZM14.6718 21.6313C12.602 21.6653 10.5992 22.0194 8.78387 22.6542C9.96743 26.7113 12.1511 29.5061 14.6718 29.7306V21.6313ZM14.6718 20.9779V16.026H7.84549C7.87077 18.1785 8.14352 20.2122 8.61057 22.0227C10.4844 21.3732 12.5456 21.0119 14.6718 20.9779ZM7.18906 16.026H0.894807C0.968984 19.2334 2.12628 22.1778 4.01879 24.5101C5.17084 23.5842 6.51982 22.8204 8.00468 22.2435C7.50546 20.3634 7.21531 18.2553 7.18906 16.026ZM7.18906 15.3726C7.21499 13.1433 7.50546 11.0352 8.00468 9.15473C6.52015 8.5778 5.17084 7.814 4.01912 6.88816C2.12628 9.22072 0.968984 12.1652 0.894807 15.3726H7.18906ZM7.84549 15.3726H14.6718V10.421C12.5456 10.387 10.4844 10.0254 8.61057 9.3759C8.14352 11.1864 7.87077 13.22 7.84549 15.3726ZM14.6718 9.7676V1.66801C12.1511 1.89244 9.96743 4.68726 8.78387 8.74474C10.5992 9.37916 12.6024 9.7333 14.6718 9.7676ZM15.3282 9.7676C17.3976 9.73362 19.4008 9.37949 21.2158 8.74506C20.0323 4.68726 17.8489 1.89244 15.3282 1.66801V9.7676ZM15.3282 10.421V15.3726H22.1545C22.1292 13.22 21.8565 11.1864 21.3894 9.3759C19.5156 10.0254 17.4544 10.387 15.3282 10.421ZM22.8106 15.3726H29.1052C29.031 12.1652 27.8737 9.22072 25.9809 6.88816C24.8288 7.814 23.4799 8.57812 21.995 9.15473C22.4942 11.0355 22.7847 13.1433 22.8106 15.3726ZM22.8106 16.026C22.7847 18.2553 22.4942 20.3631 21.995 22.2435C23.4799 22.8204 24.8288 23.5842 25.9809 24.5101C27.8737 22.1775 29.0307 19.2331 29.1049 16.026H22.8106ZM25.5565 25.0086C24.4747 24.1412 23.2091 23.4235 21.8168 22.876C20.9145 25.8972 19.4621 28.2618 17.716 29.4833C20.8088 28.8805 23.5419 27.2693 25.5565 25.0086ZM12.284 29.4833C10.5379 28.2618 9.08551 25.8972 8.18323 22.8763C6.79093 23.4238 5.52532 24.1416 4.44351 25.0089C6.45779 27.2693 9.19086 28.8805 12.284 29.4833ZM4.44318 6.38996C5.52499 7.25732 6.79027 7.97506 8.1829 8.52259C9.08518 5.5017 10.5375 3.13713 12.2837 1.91564C9.19086 2.51805 6.45779 4.12928 4.44318 6.38996ZM17.716 1.91531C19.4621 3.1368 20.9145 5.50137 21.8168 8.52259C23.2094 7.97506 24.4747 7.25732 25.5565 6.38996C23.5419 4.12928 20.8092 2.51805 17.716 1.91531Z" fill="black"/>
</g>
<defs>
<clipPath id="clip0_3304_30">
<rect width="30" height="29.8601" fill="white" transform="matrix(1 0 0 -1 0 30.6294)"/>
</clipPath>
</defs>
</svg>
